<svg xmlns="http://www.w3.org/2000/svg" viewBox="0 0 1200 900" role="img" aria-labelledby="title desc">
  <title id="title">School campus illustration</title>
  <desc id="desc">A clean illustration of a high school campus with trees and a front lawn.</desc>
  <defs>
    <linearGradient id="sky" x1="0" x2="0" y1="0" y2="1">
      <stop offset="0" stop-color="#dbeafe"/>
      <stop offset="1" stop-color="#f8fafc"/>
    </linearGradient>
  </defs>
  <rect width="1200" height="900" fill="url(#sky)"/>
  <rect y="650" width="1200" height="250" fill="#d9f99d"/>
  <rect x="250" y="275" width="700" height="375" rx="10" fill="#f8fafc"/>
  <rect x="290" y="330" width="620" height="320" fill="#e2e8f0"/>
  <rect x="350" y="235" width="500" height="90" fill="#192436"/>
  <path d="M320 235h560l-80-90H400z" fill="#f7b316"/>
  <rect x="540" y="460" width="120" height="190" fill="#192436"/>
  <rect x="380" y="365" width="72" height="90" fill="#086fd3"/>
  <rect x="492" y="365" width="72" height="90" fill="#086fd3"/>
  <rect x="636" y="365" width="72" height="90" fill="#086fd3"/>
  <rect x="748" y="365" width="72" height="90" fill="#086fd3"/>
  <circle cx="190" cy="625" r="70" fill="#15803d"/>
  <rect x="177" y="625" width="26" height="95" fill="#854d0e"/>
  <circle cx="1010" cy="625" r="78" fill="#15803d"/>
  <rect x="995" y="625" width="30" height="100" fill="#854d0e"/>
  <path d="M390 760c150-60 320-60 470 0" fill="none" stroke="#9ca6b4" stroke-width="24" stroke-linecap="round"/>
</svg>
